<svg t="1631932833807" class="icon" viewBox="0 0 1024 1024" version="1.1" xmlns="http://www.w3.org/2000/svg" p-id="638" width="200" height="200"><path d="M512 128c-213.333333 0-384 170.666667-384 384 0 42.666667 8.533333 85.333333 21.333333 128l-51.2 204.8c-8.533333 25.6 12.8 51.2 42.666667 51.2H512c213.333333 0 384-170.666667 384-384s-170.666667-384-384-384zM298.666667 554.666667c-34.133333 0-64-29.866667-64-64S264.533333 426.666667 298.666667 426.666667s64 29.866667 64 64S332.8 554.666667 298.666667 554.666667z m213.333333 0c-34.133333 0-64-29.866667-64-64S477.866667 426.666667 512 426.666667s64 29.866667 64 64S546.133333 554.666667 512 554.666667z m213.333333 0c-34.133333 0-64-29.866667-64-64S691.2 426.666667 725.333333 426.666667s64 29.866667 64 64S759.466667 554.666667 725.333333 554.666667z" p-id="639" fill="#1296db"></path></svg>